<mxfile modified="2020-08-03T05:57:13.320Z" host="app.diagrams.net" agent="5.0 (Windows)" etag="8cgShXSVMgkNhGwbEXkU" version="13.5.8" type="github">
  <diagram id="Ht1M8jgEwFfnCIfOTk4-" name="Page-1">
    <mxGraphModel dx="4680" dy="1107" grid="1" gridSize="10" guides="1" tooltips="1" connect="1" arrows="1" fold="1" page="1" pageScale="1" pageWidth="4681" pageHeight="3300" math="0" shadow="0">
      <root>
        <mxCell id="0" />
        <mxCell id="1" parent="0" />
        <mxCell id="sLU9cCrLwp9eYd17XX32-28" value="VPC" style="outlineConnect=0;gradientColor=none;html=1;whiteSpace=wrap;fontSize=12;fontStyle=0;shape=mxgraph.aws4.group;grIcon=mxgraph.aws4.group_vpc;strokeColor=#879196;fillColor=none;verticalAlign=top;align=left;spacingLeft=30;fontColor=#879196;dashed=0;" vertex="1" parent="1">
          <mxGeometry x="2800" y="188" width="180" height="194" as="geometry" />
        </mxCell>
        <mxCell id="sLU9cCrLwp9eYd17XX32-30" value="VPC" style="outlineConnect=0;gradientColor=none;html=1;whiteSpace=wrap;fontSize=12;fontStyle=0;shape=mxgraph.aws4.group;grIcon=mxgraph.aws4.group_vpc;strokeColor=#879196;fillColor=none;verticalAlign=top;align=left;spacingLeft=30;fontColor=#879196;dashed=0;" vertex="1" parent="1">
          <mxGeometry x="1110" y="90" width="1480" height="930" as="geometry" />
        </mxCell>
        <mxCell id="sLU9cCrLwp9eYd17XX32-74" style="edgeStyle=orthogonalEdgeStyle;rounded=0;orthogonalLoop=1;jettySize=auto;html=1;exitX=1;exitY=0.25;exitDx=0;exitDy=0;" edge="1" parent="1" source="sLU9cCrLwp9eYd17XX32-43" target="sLU9cCrLwp9eYd17XX32-22">
          <mxGeometry relative="1" as="geometry" />
        </mxCell>
        <mxCell id="sLU9cCrLwp9eYd17XX32-43" value="Farg" style="rounded=1;arcSize=10;dashed=1;fillColor=none;gradientColor=none;dashPattern=8 3 1 3;strokeWidth=2;" vertex="1" parent="1">
          <mxGeometry x="1490" y="234" width="460" height="170" as="geometry" />
        </mxCell>
        <mxCell id="sLU9cCrLwp9eYd17XX32-2" value="Amazon Route 53" style="outlineConnect=0;dashed=0;verticalLabelPosition=bottom;verticalAlign=top;align=center;html=1;shape=mxgraph.aws3.route_53;fillColor=#F58536;gradientColor=none;" vertex="1" parent="1">
          <mxGeometry x="848.25" y="486" width="80" height="80" as="geometry" />
        </mxCell>
        <mxCell id="sLU9cCrLwp9eYd17XX32-13" value="Static Content" style="edgeStyle=orthogonalEdgeStyle;rounded=0;orthogonalLoop=1;jettySize=auto;html=1;exitX=0.5;exitY=0;exitDx=0;exitDy=0;exitPerimeter=0;" edge="1" parent="1" source="sLU9cCrLwp9eYd17XX32-3" target="sLU9cCrLwp9eYd17XX32-2">
          <mxGeometry relative="1" as="geometry">
            <mxPoint x="168" y="430" as="targetPoint" />
            <Array as="points">
              <mxPoint x="888" y="690" />
              <mxPoint x="888" y="690" />
            </Array>
          </mxGeometry>
        </mxCell>
        <mxCell id="sLU9cCrLwp9eYd17XX32-3" value="Cloud Front" style="outlineConnect=0;dashed=0;verticalLabelPosition=bottom;verticalAlign=top;align=center;html=1;shape=mxgraph.aws3.cloudfront;fillColor=#F58536;gradientColor=none;" vertex="1" parent="1">
          <mxGeometry x="850" y="840" width="76.5" height="93" as="geometry" />
        </mxCell>
        <mxCell id="sLU9cCrLwp9eYd17XX32-4" value="&lt;div&gt;Amazon S3&lt;/div&gt;&lt;div&gt;&lt;br&gt;&lt;/div&gt;" style="outlineConnect=0;dashed=0;verticalLabelPosition=bottom;verticalAlign=top;align=center;html=1;shape=mxgraph.aws3.s3;fillColor=#E05243;gradientColor=none;" vertex="1" parent="1">
          <mxGeometry x="1000" y="840" width="76.5" height="93" as="geometry" />
        </mxCell>
        <mxCell id="sLU9cCrLwp9eYd17XX32-5" value="" style="endArrow=classic;html=1;exitX=1;exitY=0.5;exitDx=0;exitDy=0;exitPerimeter=0;entryX=0;entryY=0.5;entryDx=0;entryDy=0;entryPerimeter=0;" edge="1" parent="1" source="sLU9cCrLwp9eYd17XX32-3" target="sLU9cCrLwp9eYd17XX32-4">
          <mxGeometry width="50" height="50" relative="1" as="geometry">
            <mxPoint x="1508" y="614" as="sourcePoint" />
            <mxPoint x="1558" y="564" as="targetPoint" />
            <Array as="points" />
          </mxGeometry>
        </mxCell>
        <mxCell id="sLU9cCrLwp9eYd17XX32-11" value="" style="endArrow=none;html=1;entryX=0;entryY=0.5;entryDx=0;entryDy=0;exitX=1;exitY=0.5;exitDx=0;exitDy=0;exitPerimeter=0;entryPerimeter=0;" edge="1" parent="1" source="sLU9cCrLwp9eYd17XX32-2" target="sLU9cCrLwp9eYd17XX32-61">
          <mxGeometry width="50" height="50" relative="1" as="geometry">
            <mxPoint x="188" y="374" as="sourcePoint" />
            <mxPoint x="328" y="364.0000000000002" as="targetPoint" />
          </mxGeometry>
        </mxCell>
        <mxCell id="sLU9cCrLwp9eYd17XX32-15" value="&lt;div&gt;Cognito&lt;/div&gt;&lt;div&gt;&lt;br&gt;&lt;/div&gt;" style="outlineConnect=0;dashed=0;verticalLabelPosition=bottom;verticalAlign=top;align=center;html=1;shape=mxgraph.aws3.cognito;fillColor=#AD688B;gradientColor=none;" vertex="1" parent="1">
          <mxGeometry x="880" y="238" width="76.5" height="93" as="geometry" />
        </mxCell>
        <mxCell id="sLU9cCrLwp9eYd17XX32-16" value="User Autentication" style="endArrow=none;html=1;exitX=0.5;exitY=0;exitDx=0;exitDy=0;exitPerimeter=0;" edge="1" parent="1" source="sLU9cCrLwp9eYd17XX32-61" target="sLU9cCrLwp9eYd17XX32-15">
          <mxGeometry width="50" height="50" relative="1" as="geometry">
            <mxPoint x="390" y="300" as="sourcePoint" />
            <mxPoint x="440" y="250" as="targetPoint" />
            <Array as="points">
              <mxPoint x="1290" y="281" />
            </Array>
          </mxGeometry>
        </mxCell>
        <mxCell id="sLU9cCrLwp9eYd17XX32-17" value="RDS" style="outlineConnect=0;dashed=0;verticalLabelPosition=bottom;verticalAlign=top;align=center;html=1;shape=mxgraph.aws3.rds;fillColor=#2E73B8;gradientColor=none;" vertex="1" parent="1">
          <mxGeometry x="2341" y="418" width="72" height="81" as="geometry" />
        </mxCell>
        <mxCell id="sLU9cCrLwp9eYd17XX32-18" value="" style="outlineConnect=0;dashed=0;verticalLabelPosition=bottom;verticalAlign=top;align=center;html=1;shape=mxgraph.aws3.rds_db_instance;fillColor=#2E73B8;gradientColor=none;" vertex="1" parent="1">
          <mxGeometry x="2413" y="425.5" width="49.5" height="66" as="geometry" />
        </mxCell>
        <mxCell id="sLU9cCrLwp9eYd17XX32-20" value="" style="outlineConnect=0;fontColor=#232F3E;gradientColor=none;fillColor=#3334B9;strokeColor=none;dashed=0;verticalLabelPosition=bottom;verticalAlign=top;align=center;html=1;fontSize=12;fontStyle=0;aspect=fixed;pointerEvents=1;shape=mxgraph.aws4.rds_postgresql_instance_alt;" vertex="1" parent="1">
          <mxGeometry x="2320" y="360" width="170" height="170" as="geometry" />
        </mxCell>
        <mxCell id="sLU9cCrLwp9eYd17XX32-21" value="&lt;div&gt;Atlas Cluster&lt;/div&gt;" style="shape=image;html=1;verticalAlign=top;verticalLabelPosition=bottom;labelBackgroundColor=#ffffff;imageAspect=0;aspect=fixed;image=https://cdn4.iconfinder.com/data/icons/logos-3/512/mongodb-2-128.png" vertex="1" parent="1">
          <mxGeometry x="2850" y="234" width="90" height="90" as="geometry" />
        </mxCell>
        <mxCell id="sLU9cCrLwp9eYd17XX32-22" value="Elastic Cache" style="outlineConnect=0;dashed=0;verticalLabelPosition=bottom;verticalAlign=top;align=center;html=1;shape=mxgraph.aws3.elasticache;fillColor=#2E73B8;gradientColor=none;" vertex="1" parent="1">
          <mxGeometry x="2350" y="140" width="67.5" height="81" as="geometry" />
        </mxCell>
        <mxCell id="sLU9cCrLwp9eYd17XX32-33" value="" style="outlineConnect=0;dashed=0;verticalLabelPosition=bottom;verticalAlign=top;align=center;html=1;shape=mxgraph.aws3.vpc_peering;fillColor=#F58536;gradientColor=none;" vertex="1" parent="1">
          <mxGeometry x="2680" y="259" width="69" height="72" as="geometry" />
        </mxCell>
        <mxCell id="sLU9cCrLwp9eYd17XX32-39" value="ENI" style="outlineConnect=0;dashed=0;verticalLabelPosition=bottom;verticalAlign=top;align=center;html=1;shape=mxgraph.aws3.elastic_network_interface;fillColor=#F58534;gradientColor=none;" vertex="1" parent="1">
          <mxGeometry x="1680" y="270" width="69" height="72" as="geometry" />
        </mxCell>
        <mxCell id="sLU9cCrLwp9eYd17XX32-40" value="Container 1" style="outlineConnect=0;fontColor=#232F3E;gradientColor=none;fillColor=#D05C17;strokeColor=none;dashed=0;verticalLabelPosition=bottom;verticalAlign=top;align=center;html=1;fontSize=12;fontStyle=0;aspect=fixed;pointerEvents=1;shape=mxgraph.aws4.container_1;" vertex="1" parent="1">
          <mxGeometry x="1820" y="281" width="78" height="50" as="geometry" />
        </mxCell>
        <mxCell id="sLU9cCrLwp9eYd17XX32-42" value="Auto Scaling" style="shape=image;html=1;verticalAlign=top;verticalLabelPosition=bottom;labelBackgroundColor=#ffffff;imageAspect=0;aspect=fixed;image=https://cdn2.iconfinder.com/data/icons/amazon-aws-stencils/100/Compute__Networking_copy_Auto_Scaling-128.png" vertex="1" parent="1">
          <mxGeometry x="1480" y="214" width="128" height="128" as="geometry" />
        </mxCell>
        <mxCell id="sLU9cCrLwp9eYd17XX32-44" value="Queu" style="outlineConnect=0;dashed=0;verticalLabelPosition=bottom;verticalAlign=top;align=center;html=1;shape=mxgraph.aws3.queue;fillColor=#D9A741;gradientColor=none;" vertex="1" parent="1">
          <mxGeometry x="2150" y="648" width="73.5" height="48" as="geometry" />
        </mxCell>
        <mxCell id="sLU9cCrLwp9eYd17XX32-46" value="Fargate Task 1" style="text;html=1;strokeColor=none;fillColor=none;align=center;verticalAlign=middle;whiteSpace=wrap;rounded=0;" vertex="1" parent="1">
          <mxGeometry x="1608" y="374" width="190" height="20" as="geometry" />
        </mxCell>
        <mxCell id="sLU9cCrLwp9eYd17XX32-47" value="Farg" style="rounded=1;arcSize=10;dashed=1;fillColor=none;gradientColor=none;dashPattern=8 3 1 3;strokeWidth=2;" vertex="1" parent="1">
          <mxGeometry x="1495" y="458" width="460" height="170" as="geometry" />
        </mxCell>
        <mxCell id="sLU9cCrLwp9eYd17XX32-48" value="ENI" style="outlineConnect=0;dashed=0;verticalLabelPosition=bottom;verticalAlign=top;align=center;html=1;shape=mxgraph.aws3.elastic_network_interface;fillColor=#F58534;gradientColor=none;" vertex="1" parent="1">
          <mxGeometry x="1685" y="494" width="69" height="72" as="geometry" />
        </mxCell>
        <mxCell id="sLU9cCrLwp9eYd17XX32-49" value="Container 2" style="outlineConnect=0;fontColor=#232F3E;gradientColor=none;fillColor=#D05C17;strokeColor=none;dashed=0;verticalLabelPosition=bottom;verticalAlign=top;align=center;html=1;fontSize=12;fontStyle=0;aspect=fixed;pointerEvents=1;shape=mxgraph.aws4.container_1;" vertex="1" parent="1">
          <mxGeometry x="1825" y="505" width="78" height="50" as="geometry" />
        </mxCell>
        <mxCell id="sLU9cCrLwp9eYd17XX32-50" value="Auto Scaling" style="shape=image;html=1;verticalAlign=top;verticalLabelPosition=bottom;labelBackgroundColor=#ffffff;imageAspect=0;aspect=fixed;image=https://cdn2.iconfinder.com/data/icons/amazon-aws-stencils/100/Compute__Networking_copy_Auto_Scaling-128.png" vertex="1" parent="1">
          <mxGeometry x="1485" y="438" width="128" height="128" as="geometry" />
        </mxCell>
        <mxCell id="sLU9cCrLwp9eYd17XX32-51" value="Fargate Task 2" style="text;html=1;strokeColor=none;fillColor=none;align=center;verticalAlign=middle;whiteSpace=wrap;rounded=0;" vertex="1" parent="1">
          <mxGeometry x="1613" y="598" width="190" height="20" as="geometry" />
        </mxCell>
        <mxCell id="sLU9cCrLwp9eYd17XX32-52" value="Farg" style="rounded=1;arcSize=10;dashed=1;fillColor=none;gradientColor=none;dashPattern=8 3 1 3;strokeWidth=2;" vertex="1" parent="1">
          <mxGeometry x="1495" y="660" width="460" height="170" as="geometry" />
        </mxCell>
        <mxCell id="sLU9cCrLwp9eYd17XX32-53" value="ENI" style="outlineConnect=0;dashed=0;verticalLabelPosition=bottom;verticalAlign=top;align=center;html=1;shape=mxgraph.aws3.elastic_network_interface;fillColor=#F58534;gradientColor=none;" vertex="1" parent="1">
          <mxGeometry x="1685" y="696" width="69" height="72" as="geometry" />
        </mxCell>
        <mxCell id="sLU9cCrLwp9eYd17XX32-54" value="Container 3" style="outlineConnect=0;fontColor=#232F3E;gradientColor=none;fillColor=#D05C17;strokeColor=none;dashed=0;verticalLabelPosition=bottom;verticalAlign=top;align=center;html=1;fontSize=12;fontStyle=0;aspect=fixed;pointerEvents=1;shape=mxgraph.aws4.container_1;" vertex="1" parent="1">
          <mxGeometry x="1825" y="707" width="78" height="50" as="geometry" />
        </mxCell>
        <mxCell id="sLU9cCrLwp9eYd17XX32-55" value="Auto Scaling" style="shape=image;html=1;verticalAlign=top;verticalLabelPosition=bottom;labelBackgroundColor=#ffffff;imageAspect=0;aspect=fixed;image=https://cdn2.iconfinder.com/data/icons/amazon-aws-stencils/100/Compute__Networking_copy_Auto_Scaling-128.png" vertex="1" parent="1">
          <mxGeometry x="1485" y="640" width="128" height="128" as="geometry" />
        </mxCell>
        <mxCell id="sLU9cCrLwp9eYd17XX32-56" value="Fargate Task 3" style="text;html=1;strokeColor=none;fillColor=none;align=center;verticalAlign=middle;whiteSpace=wrap;rounded=0;" vertex="1" parent="1">
          <mxGeometry x="1613" y="800" width="190" height="20" as="geometry" />
        </mxCell>
        <mxCell id="sLU9cCrLwp9eYd17XX32-64" style="edgeStyle=orthogonalEdgeStyle;rounded=0;orthogonalLoop=1;jettySize=auto;html=1;exitX=1;exitY=0.5;exitDx=0;exitDy=0;exitPerimeter=0;" edge="1" parent="1" source="sLU9cCrLwp9eYd17XX32-61" target="sLU9cCrLwp9eYd17XX32-50">
          <mxGeometry relative="1" as="geometry">
            <Array as="points">
              <mxPoint x="1390" y="530" />
              <mxPoint x="1390" y="530" />
            </Array>
          </mxGeometry>
        </mxCell>
        <mxCell id="sLU9cCrLwp9eYd17XX32-61" value="Application Load Balancer" style="outlineConnect=0;dashed=0;verticalLabelPosition=bottom;verticalAlign=top;align=center;html=1;shape=mxgraph.aws3.application_load_balancer;fillColor=#F58534;gradientColor=none;" vertex="1" parent="1">
          <mxGeometry x="1250" y="494" width="69" height="72" as="geometry" />
        </mxCell>
        <mxCell id="sLU9cCrLwp9eYd17XX32-62" value="internet gateway" style="outlineConnect=0;dashed=0;verticalLabelPosition=bottom;verticalAlign=top;align=center;html=1;shape=mxgraph.aws3.internet_gateway;fillColor=#F58534;gradientColor=none;" vertex="1" parent="1">
          <mxGeometry x="1080" y="499" width="69" height="72" as="geometry" />
        </mxCell>
        <mxCell id="sLU9cCrLwp9eYd17XX32-65" value="" style="endArrow=classic;html=1;entryX=0;entryY=0.75;entryDx=0;entryDy=0;" edge="1" parent="1" target="sLU9cCrLwp9eYd17XX32-42">
          <mxGeometry width="50" height="50" relative="1" as="geometry">
            <mxPoint x="1400" y="530" as="sourcePoint" />
            <mxPoint x="1420" y="500" as="targetPoint" />
            <Array as="points">
              <mxPoint x="1400" y="450" />
              <mxPoint x="1400" y="310" />
            </Array>
          </mxGeometry>
        </mxCell>
        <mxCell id="sLU9cCrLwp9eYd17XX32-66" value="" style="endArrow=classic;html=1;entryX=0;entryY=0.75;entryDx=0;entryDy=0;" edge="1" parent="1" target="sLU9cCrLwp9eYd17XX32-55">
          <mxGeometry width="50" height="50" relative="1" as="geometry">
            <mxPoint x="1400" y="530" as="sourcePoint" />
            <mxPoint x="1400" y="690" as="targetPoint" />
            <Array as="points">
              <mxPoint x="1400" y="736" />
            </Array>
          </mxGeometry>
        </mxCell>
        <mxCell id="sLU9cCrLwp9eYd17XX32-67" value="" style="endArrow=classic;html=1;entryX=0.5;entryY=1;entryDx=0;entryDy=0;entryPerimeter=0;" edge="1" parent="1" target="sLU9cCrLwp9eYd17XX32-44">
          <mxGeometry width="50" height="50" relative="1" as="geometry">
            <mxPoint x="1960" y="770" as="sourcePoint" />
            <mxPoint x="2010" y="720" as="targetPoint" />
            <Array as="points">
              <mxPoint x="2187" y="770" />
            </Array>
          </mxGeometry>
        </mxCell>
        <mxCell id="sLU9cCrLwp9eYd17XX32-68" value="" style="endArrow=classic;html=1;entryX=1;entryY=0.5;entryDx=0;entryDy=0;exitX=0.5;exitY=0;exitDx=0;exitDy=0;exitPerimeter=0;" edge="1" parent="1" source="sLU9cCrLwp9eYd17XX32-44" target="sLU9cCrLwp9eYd17XX32-47">
          <mxGeometry width="50" height="50" relative="1" as="geometry">
            <mxPoint x="2160" y="650" as="sourcePoint" />
            <mxPoint x="2210" y="600" as="targetPoint" />
            <Array as="points">
              <mxPoint x="2190" y="543" />
            </Array>
          </mxGeometry>
        </mxCell>
        <mxCell id="sLU9cCrLwp9eYd17XX32-69" value="" style="endArrow=classic;html=1;entryX=0;entryY=0.5;entryDx=0;entryDy=0;entryPerimeter=0;exitX=1.012;exitY=0.364;exitDx=0;exitDy=0;exitPerimeter=0;" edge="1" parent="1" source="sLU9cCrLwp9eYd17XX32-43" target="sLU9cCrLwp9eYd17XX32-33">
          <mxGeometry width="50" height="50" relative="1" as="geometry">
            <mxPoint x="2590" y="210" as="sourcePoint" />
            <mxPoint x="2640" y="160" as="targetPoint" />
          </mxGeometry>
        </mxCell>
        <mxCell id="sLU9cCrLwp9eYd17XX32-70" value="" style="endArrow=classic;html=1;exitX=1;exitY=0.5;exitDx=0;exitDy=0;exitPerimeter=0;" edge="1" parent="1" source="sLU9cCrLwp9eYd17XX32-33" target="sLU9cCrLwp9eYd17XX32-28">
          <mxGeometry width="50" height="50" relative="1" as="geometry">
            <mxPoint x="2729.289321881345" y="335" as="sourcePoint" />
            <mxPoint x="2690" y="400" as="targetPoint" />
          </mxGeometry>
        </mxCell>
        <mxCell id="sLU9cCrLwp9eYd17XX32-72" value="" style="endArrow=classic;html=1;exitX=1;exitY=0.75;exitDx=0;exitDy=0;" edge="1" parent="1" source="sLU9cCrLwp9eYd17XX32-43">
          <mxGeometry width="50" height="50" relative="1" as="geometry">
            <mxPoint x="1950" y="330" as="sourcePoint" />
            <mxPoint x="2310" y="380" as="targetPoint" />
            <Array as="points">
              <mxPoint x="2010" y="361" />
              <mxPoint x="2010" y="380" />
            </Array>
          </mxGeometry>
        </mxCell>
        <mxCell id="sLU9cCrLwp9eYd17XX32-75" value="Cloud Watch" style="outlineConnect=0;dashed=0;verticalLabelPosition=bottom;verticalAlign=top;align=center;html=1;shape=mxgraph.aws3.cloudwatch;fillColor=#759C3E;gradientColor=none;" vertex="1" parent="1">
          <mxGeometry x="2370" y="840" width="82.5" height="93" as="geometry" />
        </mxCell>
      </root>
    </mxGraphModel>
  </diagram>
</mxfile>
